<svg xmlns="http://www.w3.org/2000/svg" xmlns:xlink="http://www.w3.org/1999/xlink" width="800px" height="800px" zoomAndPan="magnify" viewBox="0 0 810 809.999993" preserveAspectRatio="xMidYMid meet" version="1.0"><defs><clipPath id="59f8cab155"><path d="M 53.648438 199.449219 L 757 199.449219 L 757 610.550781 L 53.648438 610.550781 Z M 53.648438 199.449219 " clip-rule="nonzero"/></clipPath><clipPath id="830a2b2ea4"><path d="M 87.398438 199.449219 L 722.601562 199.449219 C 741.242188 199.449219 756.351562 214.5625 756.351562 233.199219 L 756.351562 576.800781 C 756.351562 595.4375 741.242188 610.550781 722.601562 610.550781 L 87.398438 610.550781 C 68.757812 610.550781 53.648438 595.4375 53.648438 576.800781 L 53.648438 233.199219 C 53.648438 214.5625 68.757812 199.449219 87.398438 199.449219 Z M 87.398438 199.449219 " clip-rule="nonzero"/></clipPath></defs><g clip-path="url(#59f8cab155)"><g clip-path="url(#830a2b2ea4)"><path fill="#000000" d="M 53.648438 199.449219 L 757.011719 199.449219 L 757.011719 610.550781 L 53.648438 610.550781 Z M 53.648438 199.449219 " fill-opacity="1" fill-rule="nonzero"/></g></g><path fill="#ffffff" d="M 126.800781 419.6875 L 363.46875 419.6875 L 363.46875 498.527344 L 126.800781 498.527344 Z M 126.800781 419.6875 " fill-opacity="1" fill-rule="nonzero"/><path fill="#ffffff" d="M 126.800781 312.101562 L 363.46875 312.101562 L 363.46875 391.015625 L 126.800781 391.015625 Z M 126.800781 312.101562 " fill-opacity="1" fill-rule="nonzero"/><path fill="#ffffff" d="M 600.140625 482.507812 L 599.085938 482.71875 C 595.433594 483.421875 594.097656 483.703125 591.425781 483.703125 C 585.242188 483.703125 577.933594 480.539062 577.933594 465.644531 C 577.933594 457.984375 579.199219 447.792969 590.722656 447.792969 L 590.792969 447.792969 C 592.761719 447.933594 595.011719 448.144531 599.226562 449.410156 L 600.140625 449.691406 Z M 602.039062 408.230469 L 600.140625 408.582031 L 600.140625 436.128906 L 598.453125 435.636719 L 597.960938 435.496094 C 596.0625 434.933594 591.707031 433.667969 587.492188 433.667969 C 564.441406 433.667969 559.59375 451.097656 559.59375 465.714844 C 559.59375 485.738281 570.835938 497.265625 590.441406 497.265625 C 598.734375 497.265625 604.847656 496.421875 611.03125 494.382812 C 616.722656 492.554688 618.761719 489.957031 618.761719 484.40625 L 618.761719 405.351562 C 613.28125 406.335938 607.589844 407.320312 602.039062 408.230469 " fill-opacity="1" fill-rule="nonzero"/><path fill="#ffffff" d="M 668.652344 483 L 667.667969 483.28125 L 664.15625 484.195312 C 660.855469 485.039062 657.902344 485.53125 655.652344 485.53125 C 650.242188 485.53125 647.011719 482.859375 647.011719 478.292969 C 647.011719 475.339844 648.34375 470.351562 657.199219 470.351562 L 668.652344 470.351562 Z M 660.574219 433.320312 C 653.476562 433.320312 646.167969 434.582031 637.101562 437.394531 L 631.199219 439.152344 L 633.167969 452.503906 L 638.929688 450.605469 C 644.972656 448.636719 652.492188 447.371094 658.113281 447.371094 C 660.644531 447.371094 668.371094 447.371094 668.371094 455.734375 L 668.371094 459.390625 L 657.621094 459.390625 C 638.015625 459.390625 628.949219 465.644531 628.949219 479.0625 C 628.949219 490.519531 637.3125 497.40625 651.367188 497.40625 C 655.722656 497.40625 661.765625 496.5625 666.96875 495.296875 L 667.25 495.226562 L 667.53125 495.296875 L 669.285156 495.578125 C 674.765625 496.5625 680.460938 497.546875 686.011719 498.597656 L 686.011719 454.75 C 686.011719 440.554688 677.4375 433.320312 660.574219 433.320312 " fill-opacity="1" fill-rule="nonzero"/><path fill="#ffffff" d="M 532.117188 483 L 531.132812 483.28125 L 527.621094 484.195312 C 524.320312 485.039062 521.4375 485.53125 519.117188 485.53125 C 513.707031 485.53125 510.476562 482.859375 510.476562 478.292969 C 510.476562 475.339844 511.808594 470.351562 520.59375 470.351562 L 532.046875 470.351562 L 532.046875 483 Z M 524.109375 433.320312 C 516.941406 433.320312 509.703125 434.582031 500.636719 437.394531 L 494.734375 439.152344 L 496.703125 452.503906 L 502.464844 450.605469 C 508.507812 448.636719 516.027344 447.371094 521.648438 447.371094 C 524.179688 447.371094 531.90625 447.371094 531.90625 455.734375 L 531.90625 459.390625 L 521.15625 459.390625 C 501.550781 459.390625 492.414062 465.644531 492.414062 479.0625 C 492.414062 490.519531 500.777344 497.40625 514.902344 497.40625 C 519.257812 497.40625 525.300781 496.5625 530.503906 495.296875 L 530.785156 495.226562 L 531.0625 495.296875 L 532.75 495.578125 C 538.300781 496.5625 543.925781 497.546875 549.476562 498.667969 L 549.476562 454.820312 C 549.546875 440.484375 540.972656 433.320312 524.109375 433.320312 " fill-opacity="1" fill-rule="nonzero"/><path fill="#ffffff" d="M 458.125 433.460938 C 449.199219 433.460938 441.820312 436.410156 439.082031 437.675781 L 438.378906 438.027344 L 437.746094 437.535156 C 433.949219 434.792969 428.398438 433.390625 420.667969 433.390625 C 413.855469 433.390625 407.457031 434.371094 400.503906 436.410156 C 394.527344 438.238281 392.210938 441.117188 392.210938 446.527344 L 392.210938 496.632812 L 410.902344 496.632812 L 410.902344 450.324219 L 411.816406 450.042969 C 415.609375 448.777344 417.859375 448.566406 420.039062 448.566406 C 425.449219 448.566406 428.1875 451.449219 428.1875 457.070312 L 428.1875 496.703125 L 446.597656 496.703125 L 446.597656 456.296875 C 446.597656 453.90625 446.109375 452.503906 446.039062 452.222656 L 445.40625 451.027344 L 446.667969 450.464844 C 449.480469 449.199219 452.574219 448.566406 455.804688 448.566406 C 459.527344 448.566406 463.957031 450.042969 463.957031 457.070312 L 463.957031 496.703125 L 482.296875 496.703125 L 482.296875 455.242188 C 482.296875 440.554688 474.425781 433.460938 458.125 433.460938 " fill-opacity="1" fill-rule="nonzero"/><path fill="#ffffff" d="M 654.878906 363.539062 C 652.140625 363.539062 647.574219 363.257812 643.988281 362.554688 L 642.933594 362.34375 L 642.933594 335.292969 C 642.933594 333.042969 642.511719 331.636719 642.441406 331.425781 L 641.878906 330.300781 L 643.074219 329.808594 C 643.355469 329.667969 643.636719 329.597656 643.988281 329.457031 L 644.199219 329.320312 C 644.621094 329.179688 645.042969 329.039062 645.464844 328.898438 C 645.675781 328.828125 645.816406 328.757812 645.957031 328.757812 C 650.101562 327.632812 653.898438 327.773438 655.582031 327.632812 L 655.652344 327.632812 C 667.109375 327.632812 668.441406 337.820312 668.441406 345.480469 C 668.371094 360.378906 660.996094 363.539062 654.878906 363.539062 M 654.808594 312.101562 C 654.667969 312.101562 654.460938 312.101562 654.320312 312.101562 C 643.566406 312.101562 632.535156 315.054688 628.601562 320.816406 C 626.492188 323.625 625.296875 327.140625 625.226562 331.285156 L 625.226562 359.183594 C 625.226562 361.574219 624.734375 362.484375 624.664062 362.695312 L 624.03125 363.890625 L 590.089844 363.890625 L 590.089844 344.496094 L 590.019531 344.496094 C 589.601562 324.046875 577.511719 312.804688 560.015625 312.804688 L 542.941406 312.804688 C 542.238281 317.792969 541.675781 321.308594 540.972656 326.296875 L 557.976562 326.296875 C 566.902344 326.296875 571.609375 333.886719 571.609375 345.550781 L 571.609375 365.085938 L 570.414062 364.453125 C 570.203125 364.382812 568.730469 363.890625 566.410156 363.890625 L 537.039062 363.890625 C 536.476562 367.617188 535.773438 372.464844 535 377.3125 L 625.296875 377.3125 C 628.390625 376.679688 631.972656 376.117188 635.066406 375.625 C 639.632812 377.875 648.136719 379.070312 653.96875 379.070312 C 673.574219 379.070312 686.292969 365.929688 686.292969 345.691406 C 686.222656 325.664062 673.925781 312.523438 654.808594 312.101562 " fill-opacity="1" fill-rule="nonzero"/><path fill="#ffffff" d="M 496.492188 385.535156 L 497.335938 385.535156 C 516.941406 385.535156 526.074219 379.070312 526.074219 363.117188 C 526.074219 351.664062 517.714844 342.527344 503.660156 342.527344 L 485.597656 342.527344 C 480.1875 342.527344 476.957031 339.4375 476.957031 334.238281 C 476.957031 330.722656 478.292969 326.367188 487.144531 326.367188 L 526.636719 326.367188 C 527.480469 321.238281 527.902344 318.003906 528.675781 312.875 L 487.636719 312.875 C 468.523438 312.875 458.898438 320.886719 458.898438 334.238281 C 458.898438 347.449219 467.257812 354.335938 481.3125 354.335938 L 499.371094 354.335938 C 504.785156 354.335938 508.015625 358.621094 508.015625 363.117188 C 508.015625 366.070312 506.679688 372.183594 497.898438 372.183594 L 494.875 372.183594 L 437.042969 372.042969 L 426.503906 372.042969 C 417.578125 372.042969 411.324219 366.984375 411.324219 355.25 L 411.324219 347.167969 C 411.324219 334.941406 416.171875 327.351562 426.503906 327.351562 L 443.648438 327.351562 C 444.421875 322.152344 444.914062 318.847656 445.617188 313.929688 L 422.214844 313.929688 C 404.71875 313.929688 392.632812 325.664062 392.210938 346.113281 L 392.210938 355.25 C 392.632812 375.695312 404.71875 385.464844 422.214844 385.464844 L 439.292969 385.464844 L 470.632812 385.535156 Z M 496.492188 385.535156 " fill-opacity="1" fill-rule="nonzero"/></svg>