<svg xmlns="http://www.w3.org/2000/svg" xmlns:xlink="http://www.w3.org/1999/xlink" width="500" zoomAndPan="magnify" viewBox="0 0 375 374.999991" height="500" preserveAspectRatio="xMidYMid meet" version="1.0"><defs><clipPath id="b6754b5a2f"><path d="M 7.023438 84 L 367.773438 84 L 367.773438 292 L 7.023438 292 Z M 7.023438 84 " clip-rule="nonzero"/></clipPath></defs><rect x="-37.5" width="450" fill="#ffffff" y="-37.499999" height="449.999989" fill-opacity="1"/><rect x="-37.5" width="450" fill="#ffffff" y="-37.499999" height="449.999989" fill-opacity="1"/><g clip-path="url(#b6754b5a2f)"><path fill="#000000" d="M 365.480469 211.949219 C 330.472656 192.546875 277.628906 163.179688 274.035156 160.941406 C 273.738281 160.722656 273.417969 160.542969 273.070312 160.410156 C 267.269531 158.167969 260.839844 157.5 254.644531 158.359375 C 255.195312 154.761719 254.542969 150.960938 253.035156 147.886719 C 250.21875 142.148438 245.019531 138.230469 240.847656 135.082031 L 174.917969 85.320312 C 174.566406 85.011719 174.15625 84.765625 173.703125 84.597656 C 170.539062 83.414062 170.515625 83.421875 143.425781 116.542969 C 130.015625 132.9375 111.414062 155.835938 88.132812 184.59375 C 48.046875 234.125 8.121094 283.714844 8.121094 283.714844 C 6.910156 285.214844 6.921875 287.355469 8.136719 288.847656 C 8.566406 289.371094 9.101562 289.75 9.691406 290 C 10.429688 290.710938 11.414062 291.160156 12.5 291.160156 C 12.644531 291.160156 12.785156 291.152344 12.933594 291.140625 C 13.925781 291.03125 14.910156 290.917969 15.90625 290.808594 C 39.570312 291.367188 63.308594 291.648438 87.089844 291.648438 C 144.769531 291.648438 202.648438 290.015625 259.910156 286.765625 C 261.601562 286.671875 263.054688 285.535156 263.5625 283.921875 C 267.554688 271.222656 268.445312 258.621094 269.117188 246.382812 C 301.738281 238.234375 333.652344 229.25 364.734375 219.398438 C 366.289062 218.902344 367.398438 217.535156 367.558594 215.914062 C 367.722656 214.300781 366.902344 212.738281 365.480469 211.949219 Z M 140.8125 151.75 L 166.566406 116.515625 C 167.890625 114.703125 170.441406 114.300781 172.257812 115.632812 C 174.070312 116.960938 174.46875 119.515625 173.140625 121.328125 L 147.386719 156.558594 C 146.589844 157.648438 145.351562 158.226562 144.097656 158.226562 C 143.261719 158.226562 142.421875 157.976562 141.695312 157.445312 C 139.878906 156.113281 139.484375 153.5625 140.8125 151.75 Z M 30.277344 281.007812 L 245.675781 169.304688 C 246.269531 169.308594 246.878906 169.191406 247.449219 168.914062 C 254.429688 165.554688 262.917969 165.210938 270.136719 168.011719 L 270.144531 167.988281 C 272.261719 169.378906 276.269531 171.628906 284.003906 175.957031 C 292.625 180.785156 304.117188 187.191406 315.605469 193.582031 C 330.054688 201.617188 344.496094 209.625 353.222656 214.46875 C 253.015625 245.546875 144.496094 267.890625 30.277344 281.007812 Z M 30.277344 281.007812 " fill-opacity="1" fill-rule="nonzero"/></g></svg>